<svg xmlns="http://www.w3.org/2000/svg" width="512" height="512" viewBox="0 0 512 512" fill="none">
  <!-- 星辰纪念原创绘制（CC0），作者：Stellar Memorial Team。摩羯座：海山羊，羊首螺旋角在牛宿二465,165 侧，鱼尾涡线卷向垒壁阵四28,218，整体新月形呼应倒三角星链。 -->
  <defs>
    <g id="art" stroke-linecap="round" stroke-linejoin="round" fill="none">
      <!-- 新月形脊背：头→腹底→尾 -->
      <path d="M 435 196 C 392 290 330 390 250 425 C 172 458 95 424 56 342 C 44 312 40 268 48 234"/>
      <!-- 腹线 -->
      <path d="M 428 226 C 390 292 340 346 286 380" stroke="#8fb8e0"/>
      <!-- 羊首 -->
      <path d="M 448 162 C 462 163 472 172 470 186 C 468 198 456 204 447 198"/>
      <path d="M 448 200 l -6 16"/>
      <path d="M 442 154 C 434 147 430 138 432 128"/>
      <circle cx="458" cy="176" r="2.5" fill="#bfe3ff" stroke="none"/>
      <!-- 螺旋羊角 -->
      <path d="M 458 152 C 478 120 460 92 432 96 C 412 100 406 122 420 133 C 430 141 442 133 438 120"/>
      <path d="M 447 116 C 449 130 439 138 430 130" stroke="#8fb8e0"/>
      <!-- 颈肩衔接 -->
      <path d="M 443 200 C 440 210 438 218 436 226"/>
      <!-- 鱼尾涡线 -->
      <path d="M 50 238 C 32 212 40 180 70 176 C 94 173 106 196 92 212 C 82 224 64 220 66 204"/>
      <!-- 尾鳍细线 -->
      <path d="M 72 180 l -6 -18 M 90 182 l 2 -20" stroke="#8fb8e0"/>
      <!-- 折收的前腿 -->
      <path d="M 400 252 C 392 282 378 302 358 313" stroke="#8fb8e0"/>
      <!-- 头尾亮星星芒 -->
      <path d="M 465 133 L 465 147 M 458 140 L 472 140 M 28 211 L 28 225 M 21 218 L 35 218"/>
    </g>
  </defs>
  <use href="#art" stroke="#bfe3ff" stroke-width="7" opacity="0.22"/>
  <use href="#art" stroke="#bfe3ff" stroke-width="2" opacity="0.9"/>
</svg>
