<svg xmlns="http://www.w3.org/2000/svg" width="512" height="512" viewBox="0 0 512 512" fill="none">
  <!-- 星辰纪念原创绘制（CC0），作者：Stellar Memorial Team。仙后座：坐椅王后执镜回望，W 五星严格对位（王良一441,280 / 王良四332,354 / 策267,236 / 阁道三165,249 / 阁道二85,152）。 -->
  <defs>
    <g id="art" stroke-linecap="round" stroke-linejoin="round" fill="none">
      <!-- 椅架折线（W 五星） -->
      <path d="M 441 280 C 405 305 368 330 332 354 C 310 315 288 276 267 236 C 233 240 199 245 165 249 C 138 217 112 184 85 152"/>
      <!-- 椅腿 -->
      <path d="M 332 354 C 336 380 340 406 342 430" stroke="#8fb8e0"/>
      <path d="M 441 280 C 448 308 454 336 458 362" stroke="#8fb8e0"/>
      <!-- 王后侧影：躯干与头 -->
      <path d="M 228 244 C 224 212 220 186 216 170"/>
      <circle cx="214" cy="150" r="17"/>
      <!-- 王冠 -->
      <path d="M 203 136 L 207 122 L 215 132 L 223 120 L 227 134"/>
      <!-- 长发飘向英仙 -->
      <path d="M 204 140 C 172 132 138 136 108 152" stroke="#8fb8e0"/>
      <!-- 执镜的手臂与镜 -->
      <path d="M 222 200 C 192 190 162 180 138 170"/>
      <circle cx="126" cy="162" r="12"/>
      <!-- 裙裾垂落椅面 -->
      <path d="M 216 172 C 202 210 206 234 228 246"/>
      <path d="M 230 248 C 250 280 260 310 268 340"/>
      <path d="M 240 260 C 252 292 258 322 262 350" stroke="#8fb8e0"/>
      <!-- W 五星星芒 -->
      <path d="M 441 272 L 441 288 M 433 280 L 449 280 M 332 346 L 332 362 M 324 354 L 340 354 M 267 228 L 267 244 M 259 236 L 275 236 M 165 241 L 165 257 M 157 249 L 173 249 M 85 144 L 85 160 M 77 152 L 93 152"/>
    </g>
  </defs>
  <use href="#art" stroke="#bfe3ff" stroke-width="7" opacity="0.22"/>
  <use href="#art" stroke="#bfe3ff" stroke-width="2" opacity="0.9"/>
</svg>
