<svg xmlns="http://www.w3.org/2000/svg" width="512" height="512" viewBox="0 0 512 512" fill="none">
  <!-- 星辰纪念原创绘制（CC0），作者：Stellar Memorial Team。大熊座：侧行大熊，北斗七星严格对位（天枢418,124 / 天璇450,215 / 天玑332,261 / 天权276,204 / 玉衡184,223 / 开阳109,240 / 摇光24,336）。 -->
  <defs>
    <g id="art" stroke-linecap="round" stroke-linejoin="round" fill="none">
      <!-- 背脊：经天权掠过天枢，垂向熊首 -->
      <path d="M 276 204 C 320 140 390 110 445 140 C 465 152 474 160 478 168"/>
      <!-- 熊首低垂 -->
      <path d="M 478 168 C 492 172 500 182 497 192 C 494 200 484 202 478 198"/>
      <path d="M 468 150 C 464 140 470 132 478 136"/>
      <circle cx="482" cy="172" r="2.5" fill="#bfe3ff" stroke="none"/>
      <!-- 前腿与掌 -->
      <path d="M 486 198 C 478 232 470 272 462 310"/>
      <path d="M 462 310 C 458 325 465 332 476 330"/>
      <path d="M 448 208 C 440 250 432 295 425 330" stroke="#8fb8e0"/>
      <!-- 胸腹 -->
      <path d="M 448 250 C 400 292 340 300 300 285"/>
      <!-- 后腿 -->
      <path d="M 318 280 C 308 320 298 350 291 380"/>
      <path d="M 291 380 C 287 392 293 400 304 398"/>
      <path d="M 284 264 C 276 305 269 340 263 372" stroke="#8fb8e0"/>
      <!-- 圆臀衔接 -->
      <path d="M 276 204 C 260 230 261 256 280 272"/>
      <!-- 长尾沿斗柄（玉衡→开阳→摇光） -->
      <path d="M 276 204 C 228 216 160 226 109 240 C 68 253 40 292 24 336"/>
      <!-- 北斗七星星芒 -->
      <path d="M 418 116 L 418 132 M 410 124 L 426 124 M 450 207 L 450 223 M 442 215 L 458 215 M 332 253 L 332 269 M 324 261 L 340 261 M 276 196 L 276 212 M 268 204 L 284 204 M 184 215 L 184 231 M 176 223 L 192 223 M 109 232 L 109 248 M 101 240 L 117 240 M 24 328 L 24 344 M 16 336 L 32 336"/>
    </g>
  </defs>
  <use href="#art" stroke="#bfe3ff" stroke-width="7" opacity="0.22"/>
  <use href="#art" stroke="#bfe3ff" stroke-width="2" opacity="0.9"/>
</svg>
